<svg width="18" height="16" viewBox="0 0 18 16" fill="none" xmlns="http://www.w3.org/2000/svg">
<path d="M6.59778 0.0734673L1.79411 0.0734673L3.47581 1.75517C1.84187 3.24409 0.833008 5.40588 0.833008 7.75952C0.833008 12.2749 4.48464 15.9266 9.00007 15.9266C13.5155 15.9266 17.1671 12.2759 17.1671 7.75952C17.1671 5.45361 16.206 3.38821 14.6694 1.89836L13.2759 3.24317C14.4766 4.34839 15.2449 5.98235 15.2449 7.75952C15.2449 11.2184 12.459 14.0044 9.00009 14.0044C5.54123 14.0044 2.75524 11.2184 2.75524 7.75952C2.75524 5.9337 3.57222 4.25292 4.82064 3.09997L6.5978 4.87713L6.59778 0.0734673Z" fill="black"/>
</svg>
