<svg width="25" height="24" viewBox="0 0 25 24" fill="none" xmlns="http://www.w3.org/2000/svg">
<path d="M21.1429 1H7.78571C6.48633 1 5.42857 2.05776 5.42857 3.35714V5.71429H3.85714C2.55776 5.71429 1.5 6.77205 1.5 8.07143V20.6429C1.5 21.9422 2.55776 23 3.85714 23H16.4286C17.728 23 18.7857 21.9422 18.7857 20.6429V19.8571H21.1429C22.4422 19.8571 23.5 18.7994 23.5 17.5V3.35714C23.5 2.05776 22.4422 1 21.1429 1ZM17.2143 20.6429C17.2143 21.076 16.8617 21.4286 16.4286 21.4286H3.85714C3.42401 21.4286 3.07143 21.076 3.07143 20.6429V8.07143C3.07143 7.63829 3.42401 7.28571 3.85714 7.28571H16.4286C16.8617 7.28571 17.2143 7.63829 17.2143 8.07143V20.6429ZM21.9286 17.5C21.9286 17.9331 21.576 18.2857 21.1429 18.2857H18.7857V8.07143C18.7857 6.77205 17.728 5.71429 16.4286 5.71429H7V3.35714C7 2.92401 7.35258 2.57143 7.78571 2.57143H21.1429C21.576 2.57143 21.9286 2.92401 21.9286 3.35714V17.5Z" fill="black"/>
</svg>
