<svg width="24" height="25" viewBox="0 0 24 25" fill="none" xmlns="http://www.w3.org/2000/svg">
<path d="M10.2249 5.46212C11.0774 3.78541 13.4726 3.78541 14.325 5.46212C14.7945 6.38564 15.8236 6.88121 16.8384 6.6725C18.6808 6.29356 20.1742 8.16622 19.3948 9.8781C18.9655 10.821 19.2196 11.9345 20.0155 12.5978C21.4605 13.802 20.9275 16.1371 19.1032 16.5951C18.0983 16.8474 17.3862 17.7403 17.3639 18.7761C17.3233 20.6567 15.1653 21.6959 13.6698 20.5551C12.846 19.9268 11.7039 19.9268 10.8801 20.5551C9.38462 21.6959 7.2266 20.6567 7.18606 18.7761C7.16374 17.7403 6.4516 16.8474 5.44676 16.5951C3.6224 16.1371 3.08941 13.802 4.53439 12.5978C5.33028 11.9345 5.58444 10.821 5.15515 9.8781C4.37574 8.16622 5.86913 6.29356 7.71153 6.6725C8.72631 6.88121 9.75538 6.38564 10.2249 5.46212Z" fill="black"/>
<path d="M15.3489 9.13909C15.3489 9.13909 16.226 8.79707 16.1529 9.62771C16.1286 9.96974 15.9093 11.1668 15.7387 12.4617L15.154 16.2973C15.154 16.2973 15.1053 16.8592 14.6667 16.9569C14.2281 17.0546 13.5702 16.6149 13.4484 16.5172C13.3509 16.4439 11.621 15.3445 11.0119 14.807C10.8413 14.6604 10.6464 14.3673 11.0362 14.0252L13.5946 11.5822C13.887 11.289 14.1794 10.6049 12.9611 11.4356L9.54994 13.7565C9.54994 13.7565 9.16009 14.0008 8.42915 13.7809L6.84539 13.2923C6.84539 13.2923 6.26062 12.9259 7.2596 12.5594C9.69614 11.4111 12.6931 10.2385 15.3489 9.13909Z" fill="white"/>
</svg>
