<svg width="18" height="16" viewBox="0 0 18 16" fill="none" xmlns="http://www.w3.org/2000/svg">
<path d="M5.93105 0.740134L5.93106 3.26765L5.29198 2.62857L4.83894 2.17553L4.36827 2.61021C2.99343 3.87992 2.08851 5.73422 2.08851 7.75952C2.08851 11.5866 5.17298 14.671 9.00003 14.671C12.8271 14.671 15.9116 11.5866 15.9116 7.75952C15.9116 6.04572 15.2673 4.45205 14.2204 3.25805L14.649 2.84449C15.8018 4.1652 16.5004 5.87534 16.5004 7.75952C16.5004 11.9076 13.1473 15.2599 9.00001 15.2599C4.85277 15.2599 1.49961 11.9068 1.49961 7.75952C1.49961 5.59788 2.42615 3.61355 3.92478 2.24793L4.44095 1.77756L3.94715 1.28376L3.40352 0.740134L5.93105 0.740134Z" fill="white" stroke="url(#paint0_linear_6315_7)" stroke-width="1.33333"/>
<defs>
<linearGradient id="paint0_linear_6315_7" x1="-4.80515" y1="15.5624" x2="-4.80515" y2="0.0734656" gradientUnits="userSpaceOnUse">
<stop stop-color="white" stop-opacity="0.51"/>
<stop offset="1" stop-color="white" stop-opacity="0.2"/>
</linearGradient>
</defs>
</svg>
