<svg width="16" height="16" viewBox="0 0 16 16" fill="none" xmlns="http://www.w3.org/2000/svg">
<path d="M15.7214 14.4227L10.8989 9.59947C11.6406 8.62561 12.058 7.3735 12.058 6.02835C12.058 2.68941 9.3685 0 6.02945 0C2.69039 0 0 2.6903 0 6.02924C0 9.36819 2.6895 12.0576 6.02856 12.0576C7.37375 12.0576 8.57893 11.6402 9.59979 10.8985L14.4232 15.7218C14.6084 15.907 14.8405 16 15.0727 16C15.3049 16 15.5362 15.907 15.7223 15.7218C16.0927 15.3505 16.0927 14.794 15.7214 14.4227ZM6.02945 10.2029C3.71036 10.2029 1.85563 8.34825 1.85563 6.02924C1.85563 3.71024 3.71036 1.85556 6.02945 1.85556C8.34853 1.85556 10.2033 3.71024 10.2033 6.02924C10.2033 8.34736 8.34766 10.2029 6.02945 10.2029Z" fill="black" fill-opacity="0.6"/>
</svg>
